<?xml version="1.0" standalone="no"?>
<!DOCTYPE svg PUBLIC "-//W3C//DTD SVG 20010904//EN"
 "http://www.w3.org/TR/2001/REC-SVG-20010904/DTD/svg10.dtd">
<svg version="1.0" xmlns="http://www.w3.org/2000/svg"
 width="481.000000pt" height="481.000000pt" viewBox="0 0 481.000000 481.000000"
 preserveAspectRatio="xMidYMid meet">
<metadata>
Created by potrace 1.14, written by Peter Selinger 2001-2017
</metadata>
<g transform="translate(0.000000,481.000000) scale(0.100000,-0.100000)"
fill="#000000" stroke="none">
<path d="M1932 3403 c-270 -160 -443 -354 -524 -590 -56 -162 -60 -197 -65
-611 -4 -355 -4 -385 13 -403 9 -10 23 -19 31 -19 38 0 599 172 611 187 9 13
12 100 12 354 0 294 -2 340 -16 353 -20 21 -45 20 -124 -4 -88 -27 -90 -27
-84 18 11 76 39 149 86 219 54 80 113 136 235 225 67 49 83 65 83 86 0 32 -67
210 -88 235 -25 28 -51 20 -170 -50z m117 -95 c24 -64 25 -61 -60 -128 -204
-161 -299 -319 -314 -522 -10 -137 15 -157 143 -119 38 12 72 21 76 21 3 0 5
-118 4 -261 l-3 -261 -220 -64 c-121 -35 -221 -64 -222 -64 -2 0 -3 129 -3
288 0 382 20 510 103 677 80 162 220 304 412 420 33 19 63 35 67 35 5 0 12
-10 17 -22z"/>
<path d="M4150 3379 c-162 -51 -290 -97 -297 -107 -10 -12 -13 -99 -13 -353 0
-413 -7 -394 140 -344 40 14 75 25 78 25 7 0 -9 -82 -25 -134 -41 -128 -131
-233 -322 -378 -67 -51 -69 -57 -41 -139 41 -117 72 -174 98 -177 51 -8 282
148 412 278 156 155 238 302 286 510 23 101 24 119 24 497 0 378 -1 393 -19
403 -11 5 -23 10 -28 10 -4 -1 -136 -41 -293 -91z m240 -316 c0 -304 -10 -415
-46 -541 -46 -159 -121 -278 -255 -407 -73 -70 -256 -205 -278 -205 -7 0 -44
82 -38 85 90 58 243 208 297 291 52 79 88 180 96 271 9 91 -1 139 -30 158 -20
14 -28 13 -77 -3 -30 -11 -66 -22 -82 -26 l-27 -6 2 261 3 261 210 68 c116 37
213 68 218 69 4 1 7 -124 7 -276z"/>
<path d="M1150 3204 c-119 -67 -244 -158 -331 -244 -155 -153 -237 -305 -285
-530 -13 -59 -17 -157 -21 -462 l-5 -386 26 -17 c25 -17 34 -15 323 70 179 52
303 93 311 103 18 23 17 681 -1 706 -17 23 -39 23 -130 -3 -44 -12 -81 -21
-83 -18 -11 10 21 130 53 196 42 89 147 199 271 285 98 69 98 69 45 206 -56
147 -66 153 -173 94z m74 -144 c9 -22 16 -42 16 -44 0 -2 -31 -26 -69 -54
-149 -111 -264 -263 -305 -401 -21 -73 -31 -199 -17 -234 18 -46 26 -46 199
-1 l22 6 -2 -263 -3 -263 -215 -63 c-118 -34 -219 -62 -223 -63 -5 0 -7 152
-4 338 5 350 9 390 55 522 57 163 157 301 308 421 60 47 201 139 215 139 4 0
14 -18 23 -40z"/>
<path d="M3306 3130 c-153 -49 -283 -94 -287 -102 -5 -7 -9 -166 -9 -354 0
-415 -8 -391 126 -350 47 15 87 26 89 24 2 -2 -1 -29 -6 -60 -24 -149 -127
-288 -321 -432 -94 -69 -94 -69 -35 -216 41 -101 44 -105 76 -108 59 -6 252
120 398 261 150 145 238 291 288 479 37 141 45 243 45 594 0 298 -1 322 -18
337 -10 10 -29 17 -43 16 -13 0 -150 -40 -303 -89z m254 -312 c0 -150 -5 -313
-11 -363 -35 -284 -160 -498 -394 -676 -68 -52 -176 -122 -180 -117 -2 2 -10
21 -20 43 l-16 40 33 25 c239 183 347 349 363 563 12 143 -12 164 -138 124
l-77 -25 0 262 0 262 208 66 c114 37 213 67 220 67 9 1 12 -60 12 -271z"/>
</g>
</svg>
